HIERARCHY
ROOT Hips
{
	OFFSET 0.000000 0.000000 0.000000 
	CHANNELS 6 Xposition Yposition Zposition Zrotation Yrotation Xrotation
	JOINT LeftUpLeg
	{
		OFFSET 1.363060 -1.794630 0.839290 
		CHANNELS 3 Zrotation Yrotation Xrotation
		JOINT LeftLeg
		{
			OFFSET 2.448110 -6.726130 0.000000 
			CHANNELS 3 Zrotation Yrotation Xrotation
			JOINT LeftFoot
			{
				OFFSET 2.562200 -7.039590 0.000000 
				CHANNELS 3 Zrotation Yrotation Xrotation
				JOINT LeftToeBase
				{
					OFFSET 0.157640 -0.433110 2.322550 
					CHANNELS 3 Zrotation Yrotation Xrotation
					End Site
					{
						OFFSET 0.000000 0.000000 0.000000 
					}
				}
			}
		}
	}
	JOINT RightUpLeg
	{
		OFFSET -1.305520 -1.794630 0.839290 
		CHANNELS 3 Zrotation Yrotation Xrotation
		JOINT RightLeg
		{
			OFFSET -2.542530 -6.985550 0.000000 
			CHANNELS 3 Zrotation Yrotation Xrotation
			JOINT RightFoot
			{
				OFFSET -2.568260 -7.056230 0.000000 
				CHANNELS 3 Zrotation Yrotation Xrotation
				JOINT RightToeBase
				{
					OFFSET -0.164730 -0.452590 2.363150 
					CHANNELS 3 Zrotation Yrotation Xrotation
					End Site
					{
						OFFSET 0.000000 0.000000 0.000000 
					}
				}
			}
		}
	}
	JOINT Spine
	{
		OFFSET 0.028270 2.035590 -0.193380 
		CHANNELS 3 Zrotation Yrotation Xrotation
		JOINT Spine1
		{
			OFFSET 0.056720 2.048850 -0.042750 
			CHANNELS 3 Zrotation Yrotation Xrotation
			JOINT Neck1
			{
				OFFSET -0.054170 1.746240 0.172020 
				CHANNELS 3 Zrotation Yrotation Xrotation
				JOINT Head
				{
					OFFSET 0.104070 1.761360 -0.123970 
					CHANNELS 3 Zrotation Yrotation Xrotation
					End Site
					{
						OFFSET 0.000000 0.000000 0.000000 
					}
				}
			}
			JOINT LeftArm
			{
				OFFSET 3.362410 1.200890 -0.311210 
				CHANNELS 3 Zrotation Yrotation Xrotation
				JOINT LeftForeArm
				{
					OFFSET 4.983000 -0.000000 -0.000000 
					CHANNELS 3 Zrotation Yrotation Xrotation
					JOINT LeftHand
					{
						OFFSET 3.483560 -0.000000 -0.000000 
						CHANNELS 3 Zrotation Yrotation Xrotation
						JOINT LeftHandIndex1
						{
							OFFSET 0.715260 -0.000000 -0.000000 
							CHANNELS 3 Zrotation Yrotation Xrotation
							End Site
							{
								OFFSET 0.000000 0.000000 0.000000 
							}
						}
					}
				}
			}
			JOINT RightArm
			{
				OFFSET -3.136600 1.374050 -0.404650 
				CHANNELS 3 Zrotation Yrotation Xrotation
				JOINT RightForeArm
				{
					OFFSET -5.241900 -0.000000 -0.000000 
					CHANNELS 3 Zrotation Yrotation Xrotation
					JOINT RightHand
					{
						OFFSET -3.444170 -0.000000 -0.000000 
						CHANNELS 3 Zrotation Yrotation Xrotation
						JOINT RightHandIndex1
						{
							OFFSET -0.622530 -0.000000 -0.000000 
							CHANNELS 3 Zrotation Yrotation Xrotation
							End Site
							{
								OFFSET 0.000000 0.000000 0.000000 
							}
						}
					}
				}
			}
		}
	}
}
MOTION
Frames: 13
Frame Time: 0.041667
-11.730348 17.680233 -12.192057 0.366546 -7.868210 8.244445 -23.316587 -11.084509 -9.099631 1.704521 6.705336 22.468215 -0.928209 7.415725 -8.816803 0.535800 -4.690000 -13.026600 28.821337 10.517275 -15.795149 -3.103880 -9.704495 31.845158 0.673507 -7.579777 -12.231077 -0.435900 -4.236500 11.742900 1.586270 -2.544818 -2.894938 4.499887 -0.965471 -3.400016 6.064595 -12.226814 5.779531 1.908100 -6.094200 5.445300 -83.956933 2.816202 16.906477 16.311443 -30.698101 -5.538961 -0.393668 -0.659179 0.506896 -7.125000 0.000000 0.000000 75.268365 15.035865 16.598791 -65.574164 56.812086 -41.706087 -0.035278 -0.094727 -8.592412 7.125000 0.000000 0.000000 
-11.732636 17.680432 -12.196733 0.418036 -7.766787 8.190475 -23.361065 -11.079275 -9.050515 1.700608 6.691548 22.433215 -0.914947 7.322994 -8.740935 0.532900 -4.677700 -12.991700 28.784179 10.409764 -15.789165 -3.111121 -9.715140 31.882676 0.667640 -7.580933 -12.317801 -0.417600 -4.147800 11.492900 1.547143 -2.498591 -2.893727 4.496337 -0.944821 -3.434140 6.189077 -12.344705 5.946837 1.934900 -6.138000 5.543100 -83.818329 2.563245 17.303104 17.092216 -31.597822 -5.939188 -0.297901 -0.799276 -0.004397 -7.125000 0.000000 0.000000 75.188753 15.237195 16.469484 -64.797679 56.624350 -41.045688 -0.042912 -0.060961 -5.950861 7.125000 0.000000 0.000000 
-11.736715 17.680830 -12.204095 0.399690 -7.641666 8.147890 -23.301298 -11.045415 -9.069665 1.702449 6.692036 22.433888 -0.894707 7.190410 -8.648412 0.529600 -4.663200 -12.950500 28.843530 10.401359 -15.742673 -3.112364 -9.712705 31.887583 0.667474 -7.612423 -12.403765 -0.467100 -4.383900 12.159200 1.578840 -2.520809 -2.964628 4.698085 -0.939094 -3.706326 6.152129 -12.381752 6.007858 1.920900 -6.162500 5.517900 -83.918464 2.798046 17.605458 17.696631 -32.287450 -6.255073 -0.278148 -0.819586 -0.531037 -7.125000 0.000000 0.000000 74.950775 15.443889 16.331134 -63.845189 56.400281 -40.234533 -0.078157 -0.053644 -4.391279 7.125000 0.000000 0.000000 
-11.736715 17.681626 -12.208074 0.373525 -7.487089 8.104082 -23.261554 -11.006471 -9.051261 1.701020 6.683259 22.409379 -0.880707 7.080039 -8.516022 0.565700 -4.817100 -13.387700 28.883665 10.297873 -15.751799 -3.116033 -9.715734 31.902466 0.659266 -7.559103 -12.383019 -0.491700 -4.496100 12.476700 1.584023 -2.561085 -2.983085 4.735763 -0.954113 -3.783843 6.076402 -12.496369 6.024032 1.873400 -6.221500 5.503900 -84.009044 2.997933 17.999108 18.109070 -32.752970 -6.470489 -0.282411 -0.810519 -1.156295 -7.125000 0.000000 0.000000 74.781373 16.056310 15.937036 -62.630098 56.106486 -39.203322 -0.139724 -0.067414 -3.788045 7.125000 0.000000 0.000000 
-11.735223 17.681527 -12.205288 0.420781 -7.389907 8.089857 -23.324777 -10.965753 -9.038883 1.700474 6.677150 22.397158 -0.862847 6.965218 -8.448020 0.577900 -4.868100 -13.532600 28.814730 10.123119 -15.810314 -3.116923 -9.719976 31.907115 0.653386 -7.505429 -12.327487 -0.456700 -4.335100 12.021400 1.533285 -2.535691 -2.937215 4.606828 -0.952894 -3.600323 6.110525 -12.623645 6.159899 1.856200 -6.271400 5.597000 -83.964475 2.757860 18.447315 18.333971 -32.999464 -6.584003 -0.239967 -0.869449 -1.820778 -7.125000 0.000000 0.000000 74.739702 16.656082 15.590628 -61.507573 55.824169 -38.248428 -0.189294 -0.074749 -3.403574 7.125000 0.000000 0.000000 
-11.737511 17.681527 -12.201408 0.469288 -7.362563 8.148260 -23.369089 -10.991220 -9.092975 1.699271 6.676293 22.393089 -0.853036 6.917833 -8.467517 0.552200 -4.760400 -13.226400 28.754202 10.083511 -15.880547 -3.115293 -9.723740 31.905729 0.658931 -7.548038 -12.355882 -0.419500 -4.157200 11.519300 1.493699 -2.466301 -2.904519 4.561659 -0.924839 -3.427179 6.189647 -12.737346 6.202383 1.872700 -6.318000 5.633100 -83.955281 2.355652 18.581541 18.462918 -33.122301 -6.649745 -0.277867 -0.813160 -1.074774 -7.125000 0.000000 0.000000 74.632280 16.862619 15.470690 -60.843639 55.661521 -37.690830 -0.228790 -0.082036 -3.450671 7.125000 0.000000 0.000000 
-11.738705 17.681129 -12.198822 0.475103 -7.256688 8.152925 -23.355858 -11.049717 -9.096031 1.701288 6.680280 22.403884 -0.845045 6.869054 -8.442987 0.551800 -4.758800 -13.221800 28.766789 10.062917 -15.873366 -3.114419 -9.721075 31.901758 0.668864 -7.622719 -12.407240 -0.432200 -4.219100 11.693800 1.540307 -2.509144 -2.941652 4.783930 -0.934949 -3.505128 6.260025 -12.794511 6.253085 1.939700 -6.352800 5.673400 -84.227903 2.307113 18.510989 18.714621 -33.382608 -6.782647 -0.291986 -0.780491 -0.226179 -7.125000 0.000000 0.000000 74.268039 16.790224 15.588541 -60.474829 55.582335 -37.385953 -0.271556 -0.100885 -4.484113 7.125000 0.000000 0.000000 
-11.738705 17.678443 -12.196932 0.468126 -7.132251 8.039073 -23.340405 -11.069536 -9.007706 1.709188 6.692314 22.446906 -0.835206 6.804427 -8.403184 0.555600 -4.774900 -13.267600 28.810357 10.007724 -15.727382 -3.113964 -9.710082 31.890298 0.681988 -7.714548 -12.463569 -0.463400 -4.366300 12.109400 1.601344 -2.556979 -3.016018 5.059056 -0.940436 -3.781730 6.284148 -12.836437 6.438572 1.989000 -6.382300 5.782200 -84.556177 2.445429 18.553705 19.000213 -33.681569 -6.931044 -0.305456 -0.767709 0.029555 -7.125000 0.000000 0.000000 73.898169 16.671689 15.627722 -60.050376 55.488129 -37.024088 -0.320211 -0.137527 -6.187900 7.125000 0.000000 0.000000 
-11.741391 17.677945 -12.199717 0.393672 -7.080280 7.987416 -23.240923 -11.041079 -9.027708 1.720830 6.717583 22.519675 -0.816012 6.705427 -8.413092 0.556000 -4.776500 -13.272100 28.920598 10.023039 -15.629667 -3.109415 -9.698532 31.864383 0.704593 -7.844551 -12.480960 -0.460800 -4.354200 12.075400 1.561655 -2.428499 -3.004405 4.962865 -0.883254 -3.793205 6.360832 -13.027080 6.590112 1.982400 -6.459900 5.909200 -84.488432 2.125136 18.935997 19.132862 -33.808777 -6.994163 -0.311397 -0.774273 0.217322 -7.125000 0.000000 0.000000 73.860551 16.525774 15.258021 -59.834852 55.446574 -36.867920 -0.392015 -0.172236 -8.448603 7.125000 0.000000 0.000000 
-11.743779 17.679040 -12.203100 0.284785 -7.042328 7.980404 -23.111438 -10.936062 -9.086806 1.732188 6.743222 22.589286 -0.791023 6.571267 -8.402393 0.579600 -4.875200 -13.552900 29.051278 10.019458 -15.575918 -3.103610 -9.689380 31.835818 0.715853 -7.901380 -12.467447 -0.455200 -4.328000 12.001400 1.454965 -2.216238 -2.885765 4.594401 -0.808522 -3.420815 6.460499 -13.342366 6.703240 1.925500 -6.578400 6.058900 -84.128324 1.427744 19.552291 19.161564 -33.820658 -7.000571 -0.314655 -0.772476 0.241994 -7.125000 0.000000 0.000000 74.033376 16.279895 14.682885 -59.986612 55.510150 -37.034910 -0.461368 -0.212011 -11.423344 7.125000 0.000000 0.000000 
-11.744176 17.678841 -12.204194 0.214969 -6.959882 7.940936 -23.036634 -10.867555 -9.080156 1.737666 6.752318 22.616152 -0.777101 6.480727 -8.342745 0.598600 -4.953000 -13.774500 29.130817 9.962448 -15.510461 -3.101478 -9.682586 31.820041 0.724300 -7.922122 -12.402887 -0.456500 -4.334100 12.018500 1.389661 -2.130307 -2.833543 4.373615 -0.778963 -3.260123 6.512635 -13.508686 6.649305 1.906900 -6.647800 6.032100 -83.894544 1.029370 19.875854 19.158550 -33.807432 -6.995059 -0.320819 -0.760301 0.373970 -7.125000 0.000000 0.000000 74.221149 16.042936 14.293800 -59.968065 55.531717 -37.014284 -0.492377 -0.264061 -14.506315 7.125000 0.000000 0.000000 
-11.741789 17.678542 -12.204194 0.222715 -6.719155 7.898608 -23.033939 -10.930946 -9.027004 1.733610 6.737246 22.577078 -0.746813 6.292696 -8.266944 0.582200 -4.885700 -13.583000 29.124043 9.749536 -15.546586 -3.104065 -9.685054 31.828762 0.739680 -7.985784 -12.348331 -0.426700 -4.192400 11.618400 1.373162 -2.229135 -2.860275 4.312443 -0.824767 -3.350334 6.592856 -13.506979 6.456314 1.973100 -6.657500 5.871000 -83.874491 0.925611 19.902855 19.203198 -33.872828 -7.019266 -0.272298 -0.911185 0.521977 -7.125000 0.000000 0.000000 74.414518 15.822752 14.107082 -59.804170 55.503749 -36.855301 -0.495340 -0.295383 -17.223067 7.125000 0.000000 0.000000 
-11.740396 17.678343 -12.200812 0.341980 -6.488460 7.848501 -23.160345 -10.999261 -8.934603 1.727774 6.717129 22.530100 -0.717711 6.116501 -8.218115 0.559600 -4.791600 -13.315200 28.995067 9.529569 -15.577716 -3.106305 -9.691037 31.842868 0.738743 -8.007398 -12.418962 -0.421600 -4.167500 11.548400 1.358162 -2.367707 -2.842408 4.321814 -0.895429 -3.256790 6.761126 -13.549116 6.289380 2.093200 -6.685800 5.775900 -83.981523 0.763144 19.873399 19.336276 -34.003595 -7.091420 -0.293933 -0.863121 0.515018 -7.125000 0.000000 0.000000 74.658136 15.549390 14.626326 -60.833859 55.761611 -37.759380 -0.446053 -0.237867 -21.763235 7.125000 0.000000 0.000000 
